<mxfile host="65bd71144e" modified="2021-03-03T17:29:11.679Z" agent="5.0 (Macintosh; Intel Mac OS X 11_1_0) AppleWebKit/537.36 (KHTML, like Gecko) Code/1.53.2 Chrome/87.0.4280.141 Electron/11.2.1 Safari/537.36" etag="WDgtYJLwQX8ipbF_vTGP" version="14.2.4" type="embed">
    <diagram name="Page-1" id="c4acf3e9-155e-7222-9cf6-157b1a14988f">
        <mxGraphModel dx="1135" dy="967" grid="0" gridSize="10" guides="1" tooltips="1" connect="1" arrows="1" fold="1" page="1" pageScale="1" pageWidth="850" pageHeight="1100" background="#DAD2D8" math="0" shadow="0">
            <root>
                <mxCell id="0"/>
                <mxCell id="1" parent="0"/>
                <mxCell id="YACHoL5docVy_mTdtGhY-1" value="Product" style="shape=table;html=1;whiteSpace=wrap;startSize=30;container=1;collapsible=0;childLayout=tableLayout;fontStyle=1;align=center;fillColor=#FAE5C7;strokeColor=#0F8B8D;fontColor=#143642;" parent="1" vertex="1">
                    <mxGeometry x="18" y="433" width="239.5" height="235" as="geometry"/>
                </mxCell>
                <mxCell id="YACHoL5docVy_mTdtGhY-2" value="" style="shape=partialRectangle;html=1;whiteSpace=wrap;collapsible=0;dropTarget=0;pointerEvents=0;fillColor=none;top=0;left=0;bottom=0;right=0;points=[[0,0.5],[1,0.5]];portConstraint=eastwest;strokeColor=#0F8B8D;fontColor=#143642;" parent="YACHoL5docVy_mTdtGhY-1" vertex="1">
                    <mxGeometry y="30" width="239.5" height="30" as="geometry"/>
                </mxCell>
                <mxCell id="YACHoL5docVy_mTdtGhY-3" value="PK" style="shape=partialRectangle;html=1;whiteSpace=wrap;connectable=0;fillColor=none;top=0;left=0;bottom=0;right=0;overflow=hidden;strokeColor=#0F8B8D;fontColor=#143642;" parent="YACHoL5docVy_mTdtGhY-2" vertex="1">
                    <mxGeometry width="32" height="30" as="geometry"/>
                </mxCell>
                <mxCell id="YACHoL5docVy_mTdtGhY-4" value="ID" style="shape=partialRectangle;html=1;whiteSpace=wrap;connectable=0;fillColor=none;top=0;left=0;bottom=0;right=0;overflow=hidden;strokeColor=#0F8B8D;fontColor=#143642;" parent="YACHoL5docVy_mTdtGhY-2" vertex="1">
                    <mxGeometry x="32" width="108" height="30" as="geometry"/>
                </mxCell>
                <mxCell id="YACHoL5docVy_mTdtGhY-5" value="INT(10)" style="shape=partialRectangle;html=1;whiteSpace=wrap;connectable=0;fillColor=none;top=0;left=0;bottom=0;right=0;overflow=hidden;strokeColor=#0F8B8D;fontColor=#143642;" parent="YACHoL5docVy_mTdtGhY-2" vertex="1">
                    <mxGeometry x="140" width="100" height="30" as="geometry"/>
                </mxCell>
                <mxCell id="YACHoL5docVy_mTdtGhY-6" value="" style="shape=partialRectangle;html=1;whiteSpace=wrap;collapsible=0;dropTarget=0;pointerEvents=0;fillColor=none;top=0;left=0;bottom=0;right=0;points=[[0,0.5],[1,0.5]];portConstraint=eastwest;strokeColor=#0F8B8D;fontColor=#143642;" parent="YACHoL5docVy_mTdtGhY-1" vertex="1">
                    <mxGeometry y="60" width="239.5" height="29" as="geometry"/>
                </mxCell>
                <mxCell id="YACHoL5docVy_mTdtGhY-7" value="" style="shape=partialRectangle;html=1;whiteSpace=wrap;connectable=0;fillColor=none;top=0;left=0;bottom=0;right=0;overflow=hidden;strokeColor=#0F8B8D;fontColor=#143642;" parent="YACHoL5docVy_mTdtGhY-6" vertex="1">
                    <mxGeometry width="32" height="29" as="geometry"/>
                </mxCell>
                <mxCell id="YACHoL5docVy_mTdtGhY-8" value="&lt;span style=&quot;text-align: left&quot;&gt;productName&lt;/span&gt;" style="shape=partialRectangle;html=1;whiteSpace=wrap;connectable=0;fillColor=none;top=0;left=0;bottom=0;right=0;overflow=hidden;strokeColor=#0F8B8D;fontColor=#143642;" parent="YACHoL5docVy_mTdtGhY-6" vertex="1">
                    <mxGeometry x="32" width="108" height="29" as="geometry"/>
                </mxCell>
                <mxCell id="YACHoL5docVy_mTdtGhY-9" value="&lt;span&gt;VARCHAR(50)&lt;/span&gt;" style="shape=partialRectangle;html=1;whiteSpace=wrap;connectable=0;fillColor=none;top=0;left=0;bottom=0;right=0;overflow=hidden;strokeColor=#0F8B8D;fontColor=#143642;" parent="YACHoL5docVy_mTdtGhY-6" vertex="1">
                    <mxGeometry x="140" width="100" height="29" as="geometry"/>
                </mxCell>
                <mxCell id="YACHoL5docVy_mTdtGhY-10" value="" style="shape=partialRectangle;html=1;whiteSpace=wrap;collapsible=0;dropTarget=0;pointerEvents=0;fillColor=none;top=0;left=0;bottom=0;right=0;points=[[0,0.5],[1,0.5]];portConstraint=eastwest;strokeColor=#0F8B8D;fontColor=#143642;" parent="YACHoL5docVy_mTdtGhY-1" vertex="1">
                    <mxGeometry y="89" width="239.5" height="30" as="geometry"/>
                </mxCell>
                <mxCell id="YACHoL5docVy_mTdtGhY-11" value="" style="shape=partialRectangle;html=1;whiteSpace=wrap;connectable=0;fillColor=none;top=0;left=0;bottom=0;right=0;overflow=hidden;strokeColor=#0F8B8D;fontColor=#143642;" parent="YACHoL5docVy_mTdtGhY-10" vertex="1">
                    <mxGeometry width="32" height="30" as="geometry"/>
                </mxCell>
                <mxCell id="YACHoL5docVy_mTdtGhY-12" value="&lt;span style=&quot;text-align: left&quot;&gt;title&lt;/span&gt;" style="shape=partialRectangle;html=1;whiteSpace=wrap;connectable=0;fillColor=none;top=0;left=0;bottom=0;right=0;overflow=hidden;strokeColor=#0F8B8D;fontColor=#143642;" parent="YACHoL5docVy_mTdtGhY-10" vertex="1">
                    <mxGeometry x="32" width="108" height="30" as="geometry"/>
                </mxCell>
                <mxCell id="YACHoL5docVy_mTdtGhY-13" value="VARCHAR(200)" style="shape=partialRectangle;html=1;whiteSpace=wrap;connectable=0;fillColor=none;top=0;left=0;bottom=0;right=0;overflow=hidden;strokeColor=#0F8B8D;fontColor=#143642;" parent="YACHoL5docVy_mTdtGhY-10" vertex="1">
                    <mxGeometry x="140" width="100" height="30" as="geometry"/>
                </mxCell>
                <mxCell id="15" value="" style="shape=partialRectangle;html=1;whiteSpace=wrap;collapsible=0;dropTarget=0;pointerEvents=0;fillColor=none;top=0;left=0;bottom=0;right=0;points=[[0,0.5],[1,0.5]];portConstraint=eastwest;strokeColor=#0F8B8D;fontColor=#143642;" parent="YACHoL5docVy_mTdtGhY-1" vertex="1">
                    <mxGeometry y="119" width="239.5" height="29" as="geometry"/>
                </mxCell>
                <mxCell id="16" value="" style="shape=partialRectangle;html=1;whiteSpace=wrap;connectable=0;fillColor=none;top=0;left=0;bottom=0;right=0;overflow=hidden;strokeColor=#0F8B8D;fontColor=#143642;" parent="15" vertex="1">
                    <mxGeometry width="32" height="29" as="geometry"/>
                </mxCell>
                <mxCell id="17" value="&lt;span style=&quot;text-align: left&quot;&gt;price&lt;/span&gt;" style="shape=partialRectangle;html=1;whiteSpace=wrap;connectable=0;fillColor=none;top=0;left=0;bottom=0;right=0;overflow=hidden;strokeColor=#0F8B8D;fontColor=#143642;" parent="15" vertex="1">
                    <mxGeometry x="32" width="108" height="29" as="geometry"/>
                </mxCell>
                <mxCell id="18" value="FLOAT(12)" style="shape=partialRectangle;html=1;whiteSpace=wrap;connectable=0;fillColor=none;top=0;left=0;bottom=0;right=0;overflow=hidden;strokeColor=#0F8B8D;fontColor=#143642;" parent="15" vertex="1">
                    <mxGeometry x="140" width="100" height="29" as="geometry"/>
                </mxCell>
                <mxCell id="7CMeh297SP7o4FMxIKgV-269" style="shape=partialRectangle;html=1;whiteSpace=wrap;collapsible=0;dropTarget=0;pointerEvents=0;fillColor=none;top=0;left=0;bottom=0;right=0;points=[[0,0.5],[1,0.5]];portConstraint=eastwest;strokeColor=#0F8B8D;fontColor=#143642;" parent="YACHoL5docVy_mTdtGhY-1" vertex="1">
                    <mxGeometry y="148" width="239.5" height="29" as="geometry"/>
                </mxCell>
                <mxCell id="7CMeh297SP7o4FMxIKgV-270" style="shape=partialRectangle;html=1;whiteSpace=wrap;connectable=0;fillColor=none;top=0;left=0;bottom=0;right=0;overflow=hidden;strokeColor=#0F8B8D;fontColor=#143642;" parent="7CMeh297SP7o4FMxIKgV-269" vertex="1">
                    <mxGeometry width="32" height="29" as="geometry"/>
                </mxCell>
                <mxCell id="7CMeh297SP7o4FMxIKgV-271" value="inStock" style="shape=partialRectangle;html=1;whiteSpace=wrap;connectable=0;fillColor=none;top=0;left=0;bottom=0;right=0;overflow=hidden;strokeColor=#0F8B8D;fontColor=#143642;" parent="7CMeh297SP7o4FMxIKgV-269" vertex="1">
                    <mxGeometry x="32" width="108" height="29" as="geometry"/>
                </mxCell>
                <mxCell id="7CMeh297SP7o4FMxIKgV-272" value="INT(4)" style="shape=partialRectangle;html=1;whiteSpace=wrap;connectable=0;fillColor=none;top=0;left=0;bottom=0;right=0;overflow=hidden;strokeColor=#0F8B8D;fontColor=#143642;" parent="7CMeh297SP7o4FMxIKgV-269" vertex="1">
                    <mxGeometry x="140" width="100" height="29" as="geometry"/>
                </mxCell>
                <mxCell id="7CMeh297SP7o4FMxIKgV-273" style="shape=partialRectangle;html=1;whiteSpace=wrap;collapsible=0;dropTarget=0;pointerEvents=0;fillColor=none;top=0;left=0;bottom=0;right=0;points=[[0,0.5],[1,0.5]];portConstraint=eastwest;strokeColor=#0F8B8D;fontColor=#143642;" parent="YACHoL5docVy_mTdtGhY-1" vertex="1">
                    <mxGeometry y="177" width="239.5" height="29" as="geometry"/>
                </mxCell>
                <mxCell id="7CMeh297SP7o4FMxIKgV-274" style="shape=partialRectangle;html=1;whiteSpace=wrap;connectable=0;fillColor=none;top=0;left=0;bottom=0;right=0;overflow=hidden;strokeColor=#0F8B8D;fontColor=#143642;" parent="7CMeh297SP7o4FMxIKgV-273" vertex="1">
                    <mxGeometry width="32" height="29" as="geometry"/>
                </mxCell>
                <mxCell id="7CMeh297SP7o4FMxIKgV-275" value="Discount" style="shape=partialRectangle;html=1;whiteSpace=wrap;connectable=0;fillColor=none;top=0;left=0;bottom=0;right=0;overflow=hidden;strokeColor=#0F8B8D;fontColor=#143642;" parent="7CMeh297SP7o4FMxIKgV-273" vertex="1">
                    <mxGeometry x="32" width="108" height="29" as="geometry"/>
                </mxCell>
                <mxCell id="7CMeh297SP7o4FMxIKgV-276" value="FLOAT(3)" style="shape=partialRectangle;html=1;whiteSpace=wrap;connectable=0;fillColor=none;top=0;left=0;bottom=0;right=0;overflow=hidden;strokeColor=#0F8B8D;fontColor=#143642;" parent="7CMeh297SP7o4FMxIKgV-273" vertex="1">
                    <mxGeometry x="140" width="100" height="29" as="geometry"/>
                </mxCell>
                <mxCell id="311" style="shape=partialRectangle;html=1;whiteSpace=wrap;collapsible=0;dropTarget=0;pointerEvents=0;fillColor=none;top=0;left=0;bottom=0;right=0;points=[[0,0.5],[1,0.5]];portConstraint=eastwest;strokeColor=#0F8B8D;fontColor=#143642;" vertex="1" parent="YACHoL5docVy_mTdtGhY-1">
                    <mxGeometry y="206" width="239.5" height="29" as="geometry"/>
                </mxCell>
                <mxCell id="312" style="shape=partialRectangle;html=1;whiteSpace=wrap;connectable=0;fillColor=none;top=0;left=0;bottom=0;right=0;overflow=hidden;strokeColor=#0F8B8D;fontColor=#143642;" vertex="1" parent="311">
                    <mxGeometry width="32" height="29" as="geometry"/>
                </mxCell>
                <mxCell id="313" value="image" style="shape=partialRectangle;html=1;whiteSpace=wrap;connectable=0;fillColor=none;top=0;left=0;bottom=0;right=0;overflow=hidden;strokeColor=#0F8B8D;fontColor=#143642;" vertex="1" parent="311">
                    <mxGeometry x="32" width="108" height="29" as="geometry"/>
                </mxCell>
                <mxCell id="314" value="TEXT" style="shape=partialRectangle;html=1;whiteSpace=wrap;connectable=0;fillColor=none;top=0;left=0;bottom=0;right=0;overflow=hidden;strokeColor=#0F8B8D;fontColor=#143642;" vertex="1" parent="311">
                    <mxGeometry x="140" width="100" height="29" as="geometry"/>
                </mxCell>
                <mxCell id="72" value="&lt;font color=&quot;#000000&quot;&gt;CUSTOMER&lt;/font&gt;" style="shape=table;html=1;whiteSpace=wrap;startSize=30;container=1;collapsible=0;childLayout=tableLayout;fontStyle=1;align=center;fillColor=#ffe6cc;strokeColor=#00994D;" parent="1" vertex="1">
                    <mxGeometry x="714" y="32" width="360.92857142857156" height="436" as="geometry"/>
                </mxCell>
                <mxCell id="282" style="shape=partialRectangle;html=1;whiteSpace=wrap;collapsible=0;dropTarget=0;pointerEvents=0;fillColor=none;top=0;left=0;bottom=0;right=0;points=[[0,0.5],[1,0.5]];portConstraint=eastwest;strokeColor=#0F8B8D;fontColor=#143642;" vertex="1" parent="72">
                    <mxGeometry y="30" width="360.92857142857156" height="31" as="geometry"/>
                </mxCell>
                <mxCell id="283" value="&lt;span&gt;PK&lt;/span&gt;" style="shape=partialRectangle;html=1;whiteSpace=wrap;connectable=0;fillColor=none;top=0;left=0;bottom=0;right=0;overflow=hidden;strokeColor=#0F8B8D;fontColor=#143642;" vertex="1" parent="282">
                    <mxGeometry width="55" height="31" as="geometry"/>
                </mxCell>
                <mxCell id="284" value="&lt;span&gt;ID&lt;/span&gt;" style="shape=partialRectangle;html=1;whiteSpace=wrap;connectable=0;fillColor=none;top=0;left=0;bottom=0;right=0;overflow=hidden;strokeColor=#0F8B8D;fontColor=#143642;" vertex="1" parent="282">
                    <mxGeometry x="55" width="186" height="31" as="geometry"/>
                </mxCell>
                <mxCell id="285" value="&lt;span&gt;INT(10)&lt;/span&gt;" style="shape=partialRectangle;html=1;whiteSpace=wrap;connectable=0;fillColor=none;top=0;left=0;bottom=0;right=0;overflow=hidden;strokeColor=#0F8B8D;fontColor=#143642;" vertex="1" parent="282">
                    <mxGeometry x="241" width="120" height="31" as="geometry"/>
                </mxCell>
                <mxCell id="251" style="shape=partialRectangle;html=1;whiteSpace=wrap;collapsible=0;dropTarget=0;pointerEvents=0;fillColor=none;top=0;left=0;bottom=0;right=0;points=[[0,0.5],[1,0.5]];portConstraint=eastwest;strokeColor=#0F8B8D;fontColor=#143642;" parent="72" vertex="1">
                    <mxGeometry y="61" width="360.92857142857156" height="32" as="geometry"/>
                </mxCell>
                <mxCell id="252" value="FK" style="shape=partialRectangle;html=1;whiteSpace=wrap;connectable=0;fillColor=none;top=0;left=0;bottom=0;right=0;overflow=hidden;strokeColor=#0F8B8D;fontColor=#143642;" parent="251" vertex="1">
                    <mxGeometry width="55" height="32" as="geometry"/>
                </mxCell>
                <mxCell id="253" value="&lt;font color=&quot;#000000&quot;&gt;OrderID&lt;/font&gt;" style="shape=partialRectangle;html=1;whiteSpace=wrap;connectable=0;top=0;left=0;bottom=0;right=0;overflow=hidden;strokeColor=#6F0000;fontColor=#ffffff;fillColor=none;" parent="251" vertex="1">
                    <mxGeometry x="55" width="186" height="32" as="geometry"/>
                </mxCell>
                <mxCell id="254" value="INT(10)" style="shape=partialRectangle;html=1;whiteSpace=wrap;connectable=0;fillColor=none;top=0;left=0;bottom=0;right=0;overflow=hidden;strokeColor=#0F8B8D;fontColor=#143642;" parent="251" vertex="1">
                    <mxGeometry x="241" width="120" height="32" as="geometry"/>
                </mxCell>
                <mxCell id="292" style="shape=partialRectangle;html=1;whiteSpace=wrap;collapsible=0;dropTarget=0;pointerEvents=0;fillColor=none;top=0;left=0;bottom=0;right=0;points=[[0,0.5],[1,0.5]];portConstraint=eastwest;strokeColor=#0F8B8D;fontColor=#143642;" vertex="1" parent="72">
                    <mxGeometry y="93" width="360.92857142857156" height="31" as="geometry"/>
                </mxCell>
                <mxCell id="293" value="FK" style="shape=partialRectangle;html=1;whiteSpace=wrap;connectable=0;fillColor=none;top=0;left=0;bottom=0;right=0;overflow=hidden;strokeColor=#0F8B8D;fontColor=#143642;" vertex="1" parent="292">
                    <mxGeometry width="55" height="31" as="geometry"/>
                </mxCell>
                <mxCell id="294" value="newsLetterID" style="shape=partialRectangle;html=1;whiteSpace=wrap;connectable=0;top=0;left=0;bottom=0;right=0;overflow=hidden;fontColor=#000000;fillColor=none;strokeColor=#6F0000;" vertex="1" parent="292">
                    <mxGeometry x="55" width="186" height="31" as="geometry"/>
                </mxCell>
                <mxCell id="295" value="INT(10)" style="shape=partialRectangle;html=1;whiteSpace=wrap;connectable=0;fillColor=none;top=0;left=0;bottom=0;right=0;overflow=hidden;strokeColor=#0F8B8D;fontColor=#143642;" vertex="1" parent="292">
                    <mxGeometry x="241" width="120" height="31" as="geometry"/>
                </mxCell>
                <mxCell id="81" value="" style="shape=partialRectangle;html=1;whiteSpace=wrap;collapsible=0;dropTarget=0;pointerEvents=0;fillColor=none;top=0;left=0;bottom=0;right=0;points=[[0,0.5],[1,0.5]];portConstraint=eastwest;strokeColor=#0F8B8D;fontColor=#143642;" parent="72" vertex="1">
                    <mxGeometry y="124" width="360.92857142857156" height="31" as="geometry"/>
                </mxCell>
                <mxCell id="82" value="" style="shape=partialRectangle;html=1;whiteSpace=wrap;connectable=0;fillColor=none;top=0;left=0;bottom=0;right=0;overflow=hidden;strokeColor=#0F8B8D;fontColor=#143642;" parent="81" vertex="1">
                    <mxGeometry width="55" height="31" as="geometry"/>
                </mxCell>
                <mxCell id="83" value="&lt;span style=&quot;text-align: left&quot;&gt;isAdmin&lt;/span&gt;" style="shape=partialRectangle;html=1;whiteSpace=wrap;connectable=0;fillColor=none;top=0;left=0;bottom=0;right=0;overflow=hidden;strokeColor=#0F8B8D;fontColor=#143642;" parent="81" vertex="1">
                    <mxGeometry x="55" width="186" height="31" as="geometry"/>
                </mxCell>
                <mxCell id="84" value="&lt;span&gt;INT(1)&lt;/span&gt;" style="shape=partialRectangle;html=1;whiteSpace=wrap;connectable=0;fillColor=none;top=0;left=0;bottom=0;right=0;overflow=hidden;strokeColor=#0F8B8D;fontColor=#143642;" parent="81" vertex="1">
                    <mxGeometry x="241" width="120" height="31" as="geometry"/>
                </mxCell>
                <mxCell id="300" style="shape=partialRectangle;html=1;whiteSpace=wrap;collapsible=0;dropTarget=0;pointerEvents=0;fillColor=none;top=0;left=0;bottom=0;right=0;points=[[0,0.5],[1,0.5]];portConstraint=eastwest;strokeColor=#0F8B8D;fontColor=#143642;" vertex="1" parent="72">
                    <mxGeometry y="155" width="360.92857142857156" height="31" as="geometry"/>
                </mxCell>
                <mxCell id="301" style="shape=partialRectangle;html=1;whiteSpace=wrap;connectable=0;fillColor=none;top=0;left=0;bottom=0;right=0;overflow=hidden;strokeColor=#0F8B8D;fontColor=#143642;" vertex="1" parent="300">
                    <mxGeometry width="55" height="31" as="geometry"/>
                </mxCell>
                <mxCell id="302" value="&lt;div style=&quot;text-align: left&quot;&gt;&lt;font face=&quot;helvetica&quot;&gt;fName&lt;/font&gt;&lt;/div&gt;" style="shape=partialRectangle;html=1;whiteSpace=wrap;connectable=0;fillColor=none;top=0;left=0;bottom=0;right=0;overflow=hidden;strokeColor=#0F8B8D;fontColor=#143642;" vertex="1" parent="300">
                    <mxGeometry x="55" width="186" height="31" as="geometry"/>
                </mxCell>
                <mxCell id="303" value="&lt;span&gt;VARCHAR(100)&lt;/span&gt;" style="shape=partialRectangle;html=1;whiteSpace=wrap;connectable=0;fillColor=none;top=0;left=0;bottom=0;right=0;overflow=hidden;strokeColor=#0F8B8D;fontColor=#143642;" vertex="1" parent="300">
                    <mxGeometry x="241" width="120" height="31" as="geometry"/>
                </mxCell>
                <mxCell id="192" style="shape=partialRectangle;html=1;whiteSpace=wrap;collapsible=0;dropTarget=0;pointerEvents=0;fillColor=none;top=0;left=0;bottom=0;right=0;points=[[0,0.5],[1,0.5]];portConstraint=eastwest;strokeColor=#0F8B8D;fontColor=#143642;" parent="72" vertex="1">
                    <mxGeometry y="186" width="360.92857142857156" height="32" as="geometry"/>
                </mxCell>
                <mxCell id="193" style="shape=partialRectangle;html=1;whiteSpace=wrap;connectable=0;fillColor=none;top=0;left=0;bottom=0;right=0;overflow=hidden;strokeColor=#0F8B8D;fontColor=#143642;" parent="192" vertex="1">
                    <mxGeometry width="55" height="32" as="geometry"/>
                </mxCell>
                <mxCell id="194" value="lName" style="shape=partialRectangle;html=1;whiteSpace=wrap;connectable=0;fillColor=none;top=0;left=0;bottom=0;right=0;overflow=hidden;strokeColor=#0F8B8D;fontColor=#143642;" parent="192" vertex="1">
                    <mxGeometry x="55" width="186" height="32" as="geometry"/>
                </mxCell>
                <mxCell id="195" value="VARCHAR(100)" style="shape=partialRectangle;html=1;whiteSpace=wrap;connectable=0;fillColor=none;top=0;left=0;bottom=0;right=0;overflow=hidden;strokeColor=#0F8B8D;fontColor=#143642;" parent="192" vertex="1">
                    <mxGeometry x="241" width="120" height="32" as="geometry"/>
                </mxCell>
                <mxCell id="196" style="shape=partialRectangle;html=1;whiteSpace=wrap;collapsible=0;dropTarget=0;pointerEvents=0;fillColor=none;top=0;left=0;bottom=0;right=0;points=[[0,0.5],[1,0.5]];portConstraint=eastwest;strokeColor=#0F8B8D;fontColor=#143642;" parent="72" vertex="1">
                    <mxGeometry y="218" width="360.92857142857156" height="31" as="geometry"/>
                </mxCell>
                <mxCell id="197" style="shape=partialRectangle;html=1;whiteSpace=wrap;connectable=0;fillColor=none;top=0;left=0;bottom=0;right=0;overflow=hidden;strokeColor=#0F8B8D;fontColor=#143642;" parent="196" vertex="1">
                    <mxGeometry width="55" height="31" as="geometry"/>
                </mxCell>
                <mxCell id="198" value="email" style="shape=partialRectangle;html=1;whiteSpace=wrap;connectable=0;fillColor=none;top=0;left=0;bottom=0;right=0;overflow=hidden;strokeColor=#0F8B8D;fontColor=#143642;" parent="196" vertex="1">
                    <mxGeometry x="55" width="186" height="31" as="geometry"/>
                </mxCell>
                <mxCell id="199" value="VARCHAR(255)" style="shape=partialRectangle;html=1;whiteSpace=wrap;connectable=0;fillColor=none;top=0;left=0;bottom=0;right=0;overflow=hidden;strokeColor=#0F8B8D;fontColor=#143642;" parent="196" vertex="1">
                    <mxGeometry x="241" width="120" height="31" as="geometry"/>
                </mxCell>
                <mxCell id="200" style="shape=partialRectangle;html=1;whiteSpace=wrap;collapsible=0;dropTarget=0;pointerEvents=0;top=0;left=0;bottom=0;right=0;points=[[0,0.5],[1,0.5]];portConstraint=eastwest;fillColor=none;" parent="72" vertex="1">
                    <mxGeometry y="249" width="360.92857142857156" height="31" as="geometry"/>
                </mxCell>
                <mxCell id="201" style="shape=partialRectangle;html=1;whiteSpace=wrap;connectable=0;fillColor=none;top=0;left=0;bottom=0;right=0;overflow=hidden;strokeColor=#0F8B8D;fontColor=#143642;" parent="200" vertex="1">
                    <mxGeometry width="55" height="31" as="geometry"/>
                </mxCell>
                <mxCell id="202" value="&lt;font color=&quot;#000000&quot;&gt;phone&lt;/font&gt;" style="shape=partialRectangle;html=1;whiteSpace=wrap;connectable=0;top=0;left=0;bottom=0;right=0;overflow=hidden;strokeColor=#006EAF;fontColor=#ffffff;fillColor=none;" parent="200" vertex="1">
                    <mxGeometry x="55" width="186" height="31" as="geometry"/>
                </mxCell>
                <mxCell id="203" value="VARCHAR(20)" style="shape=partialRectangle;html=1;whiteSpace=wrap;connectable=0;top=0;left=0;bottom=0;right=0;overflow=hidden;strokeColor=#006EAF;fillColor=none;fontColor=#000000;" parent="200" vertex="1">
                    <mxGeometry x="241" width="120" height="31" as="geometry"/>
                </mxCell>
                <mxCell id="204" style="shape=partialRectangle;html=1;whiteSpace=wrap;collapsible=0;dropTarget=0;pointerEvents=0;fillColor=none;top=0;left=0;bottom=0;right=0;points=[[0,0.5],[1,0.5]];portConstraint=eastwest;strokeColor=#0F8B8D;fontColor=#143642;" parent="72" vertex="1">
                    <mxGeometry y="280" width="360.92857142857156" height="32" as="geometry"/>
                </mxCell>
                <mxCell id="205" style="shape=partialRectangle;html=1;whiteSpace=wrap;connectable=0;fillColor=none;top=0;left=0;bottom=0;right=0;overflow=hidden;strokeColor=#0F8B8D;fontColor=#143642;" parent="204" vertex="1">
                    <mxGeometry width="55" height="32" as="geometry"/>
                </mxCell>
                <mxCell id="206" value="&lt;font color=&quot;#000000&quot;&gt;password&lt;/font&gt;" style="shape=partialRectangle;html=1;whiteSpace=wrap;connectable=0;top=0;left=0;bottom=0;right=0;overflow=hidden;strokeColor=#001DBC;fontColor=#ffffff;fillColor=none;" parent="204" vertex="1">
                    <mxGeometry x="55" width="186" height="32" as="geometry"/>
                </mxCell>
                <mxCell id="207" value="VARCHAR(255)" style="shape=partialRectangle;html=1;whiteSpace=wrap;connectable=0;fillColor=none;top=0;left=0;bottom=0;right=0;overflow=hidden;strokeColor=#0F8B8D;fontColor=#143642;" parent="204" vertex="1">
                    <mxGeometry x="241" width="120" height="32" as="geometry"/>
                </mxCell>
                <mxCell id="208" style="shape=partialRectangle;html=1;whiteSpace=wrap;collapsible=0;dropTarget=0;pointerEvents=0;fillColor=none;top=0;left=0;bottom=0;right=0;points=[[0,0.5],[1,0.5]];portConstraint=eastwest;strokeColor=#0F8B8D;fontColor=#143642;" parent="72" vertex="1">
                    <mxGeometry y="312" width="360.92857142857156" height="31" as="geometry"/>
                </mxCell>
                <mxCell id="209" style="shape=partialRectangle;html=1;whiteSpace=wrap;connectable=0;fillColor=none;top=0;left=0;bottom=0;right=0;overflow=hidden;strokeColor=#0F8B8D;fontColor=#143642;" parent="208" vertex="1">
                    <mxGeometry width="55" height="31" as="geometry"/>
                </mxCell>
                <mxCell id="210" value="city" style="shape=partialRectangle;html=1;whiteSpace=wrap;connectable=0;fillColor=none;top=0;left=0;bottom=0;right=0;overflow=hidden;strokeColor=#0F8B8D;fontColor=#143642;" parent="208" vertex="1">
                    <mxGeometry x="55" width="186" height="31" as="geometry"/>
                </mxCell>
                <mxCell id="211" value="&lt;span&gt;VARCHAR(20)&lt;/span&gt;" style="shape=partialRectangle;html=1;whiteSpace=wrap;connectable=0;fillColor=none;top=0;left=0;bottom=0;right=0;overflow=hidden;strokeColor=#0F8B8D;fontColor=#143642;" parent="208" vertex="1">
                    <mxGeometry x="241" width="120" height="31" as="geometry"/>
                </mxCell>
                <mxCell id="270" style="shape=partialRectangle;html=1;whiteSpace=wrap;collapsible=0;dropTarget=0;pointerEvents=0;fillColor=none;top=0;left=0;bottom=0;right=0;points=[[0,0.5],[1,0.5]];portConstraint=eastwest;strokeColor=#0F8B8D;fontColor=#143642;" vertex="1" parent="72">
                    <mxGeometry y="343" width="360.92857142857156" height="31" as="geometry"/>
                </mxCell>
                <mxCell id="271" style="shape=partialRectangle;html=1;whiteSpace=wrap;connectable=0;fillColor=none;top=0;left=0;bottom=0;right=0;overflow=hidden;strokeColor=#0F8B8D;fontColor=#143642;" vertex="1" parent="270">
                    <mxGeometry width="55" height="31" as="geometry"/>
                </mxCell>
                <mxCell id="272" value="postalcode" style="shape=partialRectangle;html=1;whiteSpace=wrap;connectable=0;fillColor=none;top=0;left=0;bottom=0;right=0;overflow=hidden;fontColor=#143642;strokeColor=#053030;" vertex="1" parent="270">
                    <mxGeometry x="55" width="186" height="31" as="geometry"/>
                </mxCell>
                <mxCell id="273" value="VARCHAR(5)" style="shape=partialRectangle;html=1;whiteSpace=wrap;connectable=0;fillColor=none;top=0;left=0;bottom=0;right=0;overflow=hidden;strokeColor=#0F8B8D;fontColor=#143642;" vertex="1" parent="270">
                    <mxGeometry x="241" width="120" height="31" as="geometry"/>
                </mxCell>
                <mxCell id="274" style="shape=partialRectangle;html=1;whiteSpace=wrap;collapsible=0;dropTarget=0;pointerEvents=0;fillColor=none;top=0;left=0;bottom=0;right=0;points=[[0,0.5],[1,0.5]];portConstraint=eastwest;strokeColor=#0F8B8D;fontColor=#143642;" vertex="1" parent="72">
                    <mxGeometry y="374" width="360.92857142857156" height="31" as="geometry"/>
                </mxCell>
                <mxCell id="275" style="shape=partialRectangle;html=1;whiteSpace=wrap;connectable=0;fillColor=none;top=0;left=0;bottom=0;right=0;overflow=hidden;strokeColor=#0F8B8D;fontColor=#143642;" vertex="1" parent="274">
                    <mxGeometry width="55" height="31" as="geometry"/>
                </mxCell>
                <mxCell id="276" value="country" style="shape=partialRectangle;html=1;whiteSpace=wrap;connectable=0;fillColor=none;top=0;left=0;bottom=0;right=0;overflow=hidden;strokeColor=#0F8B8D;fontColor=#143642;" vertex="1" parent="274">
                    <mxGeometry x="55" width="186" height="31" as="geometry"/>
                </mxCell>
                <mxCell id="277" value="VARCHAR(20)" style="shape=partialRectangle;html=1;whiteSpace=wrap;connectable=0;fillColor=none;top=0;left=0;bottom=0;right=0;overflow=hidden;strokeColor=#0F8B8D;fontColor=#143642;" vertex="1" parent="274">
                    <mxGeometry x="241" width="120" height="31" as="geometry"/>
                </mxCell>
                <mxCell id="278" style="shape=partialRectangle;html=1;whiteSpace=wrap;collapsible=0;dropTarget=0;pointerEvents=0;fillColor=none;top=0;left=0;bottom=0;right=0;points=[[0,0.5],[1,0.5]];portConstraint=eastwest;strokeColor=#0F8B8D;fontColor=#143642;" vertex="1" parent="72">
                    <mxGeometry y="405" width="360.92857142857156" height="31" as="geometry"/>
                </mxCell>
                <mxCell id="279" style="shape=partialRectangle;html=1;whiteSpace=wrap;connectable=0;fillColor=none;top=0;left=0;bottom=0;right=0;overflow=hidden;strokeColor=#0F8B8D;fontColor=#143642;" vertex="1" parent="278">
                    <mxGeometry width="55" height="31" as="geometry"/>
                </mxCell>
                <mxCell id="280" value="street" style="shape=partialRectangle;html=1;whiteSpace=wrap;connectable=0;fillColor=none;top=0;left=0;bottom=0;right=0;overflow=hidden;strokeColor=#0F8B8D;fontColor=#143642;" vertex="1" parent="278">
                    <mxGeometry x="55" width="186" height="31" as="geometry"/>
                </mxCell>
                <mxCell id="281" value="VARCHAR(80)" style="shape=partialRectangle;html=1;whiteSpace=wrap;connectable=0;fillColor=none;top=0;left=0;bottom=0;right=0;overflow=hidden;strokeColor=#0F8B8D;fontColor=#143642;" vertex="1" parent="278">
                    <mxGeometry x="241" width="120" height="31" as="geometry"/>
                </mxCell>
                <mxCell id="120" value="ORDER" style="shape=table;html=1;whiteSpace=wrap;startSize=30;container=1;collapsible=0;childLayout=tableLayout;fontStyle=1;align=center;fillColor=#FAE5C7;strokeColor=#0F8B8D;fontColor=#143642;" parent="1" vertex="1">
                    <mxGeometry x="630" y="575" width="210" height="183" as="geometry"/>
                </mxCell>
                <mxCell id="121" value="" style="shape=partialRectangle;html=1;whiteSpace=wrap;collapsible=0;dropTarget=0;pointerEvents=0;fillColor=none;top=0;left=0;bottom=0;right=0;points=[[0,0.5],[1,0.5]];portConstraint=eastwest;strokeColor=#0F8B8D;fontColor=#143642;" parent="120" vertex="1">
                    <mxGeometry y="30" width="210" height="30" as="geometry"/>
                </mxCell>
                <mxCell id="122" value="PK" style="shape=partialRectangle;html=1;whiteSpace=wrap;connectable=0;fillColor=none;top=0;left=0;bottom=0;right=0;overflow=hidden;strokeColor=#0F8B8D;fontColor=#143642;" parent="121" vertex="1">
                    <mxGeometry width="28" height="30" as="geometry"/>
                </mxCell>
                <mxCell id="123" value="&lt;span&gt;ID&lt;/span&gt;" style="shape=partialRectangle;html=1;whiteSpace=wrap;connectable=0;fillColor=none;top=0;left=0;bottom=0;right=0;overflow=hidden;strokeColor=#0F8B8D;fontColor=#143642;" parent="121" vertex="1">
                    <mxGeometry x="28" width="100" height="30" as="geometry"/>
                </mxCell>
                <mxCell id="124" value="&lt;span&gt;INT(10)&lt;/span&gt;" style="shape=partialRectangle;html=1;whiteSpace=wrap;connectable=0;fillColor=none;top=0;left=0;bottom=0;right=0;overflow=hidden;strokeColor=#0F8B8D;fontColor=#143642;" parent="121" vertex="1">
                    <mxGeometry x="128" width="82" height="30" as="geometry"/>
                </mxCell>
                <mxCell id="ivW9iHV96__MKiOfjKR5-309" style="shape=partialRectangle;html=1;whiteSpace=wrap;collapsible=0;dropTarget=0;pointerEvents=0;fillColor=none;top=0;left=0;bottom=0;right=0;points=[[0,0.5],[1,0.5]];portConstraint=eastwest;strokeColor=#0F8B8D;fontColor=#143642;" parent="120" vertex="1">
                    <mxGeometry y="60" width="210" height="30" as="geometry"/>
                </mxCell>
                <mxCell id="ivW9iHV96__MKiOfjKR5-310" value="FK" style="shape=partialRectangle;html=1;whiteSpace=wrap;connectable=0;fillColor=none;top=0;left=0;bottom=0;right=0;overflow=hidden;strokeColor=#0F8B8D;fontColor=#143642;" parent="ivW9iHV96__MKiOfjKR5-309" vertex="1">
                    <mxGeometry width="28" height="30" as="geometry"/>
                </mxCell>
                <mxCell id="ivW9iHV96__MKiOfjKR5-311" value="&lt;span&gt;ShipperID&lt;/span&gt;" style="shape=partialRectangle;html=1;whiteSpace=wrap;connectable=0;fillColor=none;top=0;left=0;bottom=0;right=0;overflow=hidden;strokeColor=#0F8B8D;fontColor=#143642;" parent="ivW9iHV96__MKiOfjKR5-309" vertex="1">
                    <mxGeometry x="28" width="100" height="30" as="geometry"/>
                </mxCell>
                <mxCell id="ivW9iHV96__MKiOfjKR5-312" value="&lt;span&gt;INT(10)&lt;/span&gt;" style="shape=partialRectangle;html=1;whiteSpace=wrap;connectable=0;fillColor=none;top=0;left=0;bottom=0;right=0;overflow=hidden;strokeColor=#0F8B8D;fontColor=#143642;" parent="ivW9iHV96__MKiOfjKR5-309" vertex="1">
                    <mxGeometry x="128" width="82" height="30" as="geometry"/>
                </mxCell>
                <mxCell id="247" style="shape=partialRectangle;html=1;whiteSpace=wrap;collapsible=0;dropTarget=0;pointerEvents=0;fillColor=none;top=0;left=0;bottom=0;right=0;points=[[0,0.5],[1,0.5]];portConstraint=eastwest;strokeColor=#0F8B8D;fontColor=#143642;" parent="120" vertex="1">
                    <mxGeometry y="90" width="210" height="34" as="geometry"/>
                </mxCell>
                <mxCell id="248" value="FK" style="shape=partialRectangle;html=1;whiteSpace=wrap;connectable=0;fillColor=none;top=0;left=0;bottom=0;right=0;overflow=hidden;strokeColor=#0F8B8D;fontColor=#143642;" parent="247" vertex="1">
                    <mxGeometry width="28" height="34" as="geometry"/>
                </mxCell>
                <mxCell id="249" value="CustomerID" style="shape=partialRectangle;html=1;whiteSpace=wrap;connectable=0;fillColor=none;top=0;left=0;bottom=0;right=0;overflow=hidden;strokeColor=#0F8B8D;fontColor=#143642;" parent="247" vertex="1">
                    <mxGeometry x="28" width="100" height="34" as="geometry"/>
                </mxCell>
                <mxCell id="250" value="&lt;span&gt;INT(10)&lt;/span&gt;" style="shape=partialRectangle;html=1;whiteSpace=wrap;connectable=0;fillColor=none;top=0;left=0;bottom=0;right=0;overflow=hidden;strokeColor=#0F8B8D;fontColor=#143642;" parent="247" vertex="1">
                    <mxGeometry x="128" width="82" height="34" as="geometry"/>
                </mxCell>
                <mxCell id="266" style="shape=partialRectangle;html=1;whiteSpace=wrap;collapsible=0;dropTarget=0;pointerEvents=0;fillColor=none;top=0;left=0;bottom=0;right=0;points=[[0,0.5],[1,0.5]];portConstraint=eastwest;strokeColor=#0F8B8D;fontColor=#143642;" parent="120" vertex="1">
                    <mxGeometry y="124" width="210" height="30" as="geometry"/>
                </mxCell>
                <mxCell id="267" style="shape=partialRectangle;html=1;whiteSpace=wrap;connectable=0;fillColor=none;top=0;left=0;bottom=0;right=0;overflow=hidden;strokeColor=#0F8B8D;fontColor=#143642;" parent="266" vertex="1">
                    <mxGeometry width="28" height="30" as="geometry"/>
                </mxCell>
                <mxCell id="268" value="date" style="shape=partialRectangle;html=1;whiteSpace=wrap;connectable=0;fillColor=none;top=0;left=0;bottom=0;right=0;overflow=hidden;strokeColor=#0F8B8D;fontColor=#143642;" parent="266" vertex="1">
                    <mxGeometry x="28" width="100" height="30" as="geometry"/>
                </mxCell>
                <mxCell id="269" value="DATE(10)" style="shape=partialRectangle;html=1;whiteSpace=wrap;connectable=0;fillColor=none;top=0;left=0;bottom=0;right=0;overflow=hidden;strokeColor=#0F8B8D;fontColor=#143642;" parent="266" vertex="1">
                    <mxGeometry x="128" width="82" height="30" as="geometry"/>
                </mxCell>
                <mxCell id="156" style="shape=partialRectangle;html=1;whiteSpace=wrap;collapsible=0;dropTarget=0;pointerEvents=0;fillColor=none;top=0;left=0;bottom=0;right=0;points=[[0,0.5],[1,0.5]];portConstraint=eastwest;strokeColor=#0F8B8D;fontColor=#143642;" parent="120" vertex="1">
                    <mxGeometry y="154" width="210" height="29" as="geometry"/>
                </mxCell>
                <mxCell id="157" style="shape=partialRectangle;html=1;whiteSpace=wrap;connectable=0;fillColor=none;top=0;left=0;bottom=0;right=0;overflow=hidden;strokeColor=#0F8B8D;fontColor=#143642;" parent="156" vertex="1">
                    <mxGeometry width="28" height="29" as="geometry"/>
                </mxCell>
                <mxCell id="158" value="sum" style="shape=partialRectangle;html=1;whiteSpace=wrap;connectable=0;fillColor=none;top=0;left=0;bottom=0;right=0;overflow=hidden;strokeColor=#0F8B8D;fontColor=#143642;" parent="156" vertex="1">
                    <mxGeometry x="28" width="100" height="29" as="geometry"/>
                </mxCell>
                <mxCell id="159" value="FLOAT(12)" style="shape=partialRectangle;html=1;whiteSpace=wrap;connectable=0;fillColor=none;top=0;left=0;bottom=0;right=0;overflow=hidden;strokeColor=#0F8B8D;fontColor=#143642;" parent="156" vertex="1">
                    <mxGeometry x="128" width="82" height="29" as="geometry"/>
                </mxCell>
                <mxCell id="138" value="SHIPPER" style="shape=table;html=1;whiteSpace=wrap;startSize=30;container=1;collapsible=0;childLayout=tableLayout;fontStyle=1;align=center;fillColor=#FAE5C7;strokeColor=#0F8B8D;fontColor=#143642;" parent="1" vertex="1">
                    <mxGeometry x="279" y="672" width="235.6470588235295" height="148" as="geometry"/>
                </mxCell>
                <mxCell id="139" value="" style="shape=partialRectangle;html=1;whiteSpace=wrap;collapsible=0;dropTarget=0;pointerEvents=0;fillColor=none;top=0;left=0;bottom=0;right=0;points=[[0,0.5],[1,0.5]];portConstraint=eastwest;strokeColor=#0F8B8D;fontColor=#143642;" parent="138" vertex="1">
                    <mxGeometry y="30" width="235.6470588235295" height="30" as="geometry"/>
                </mxCell>
                <mxCell id="140" value="PK" style="shape=partialRectangle;html=1;whiteSpace=wrap;connectable=0;fillColor=none;top=0;left=0;bottom=0;right=0;overflow=hidden;strokeColor=#0F8B8D;fontColor=#143642;" parent="139" vertex="1">
                    <mxGeometry width="30" height="30" as="geometry"/>
                </mxCell>
                <mxCell id="141" value="ShipperID" style="shape=partialRectangle;html=1;whiteSpace=wrap;connectable=0;fillColor=none;top=0;left=0;bottom=0;right=0;overflow=hidden;strokeColor=#0F8B8D;fontColor=#143642;" parent="139" vertex="1">
                    <mxGeometry x="30" width="102" height="30" as="geometry"/>
                </mxCell>
                <mxCell id="142" value="INT(10)" style="shape=partialRectangle;html=1;whiteSpace=wrap;connectable=0;fillColor=none;top=0;left=0;bottom=0;right=0;overflow=hidden;strokeColor=#0F8B8D;fontColor=#143642;" parent="139" vertex="1">
                    <mxGeometry x="132" width="104" height="30" as="geometry"/>
                </mxCell>
                <mxCell id="228" style="shape=partialRectangle;html=1;whiteSpace=wrap;collapsible=0;dropTarget=0;pointerEvents=0;fillColor=none;top=0;left=0;bottom=0;right=0;points=[[0,0.5],[1,0.5]];portConstraint=eastwest;strokeColor=#0F8B8D;fontColor=#143642;" parent="138" vertex="1">
                    <mxGeometry y="60" width="235.6470588235295" height="30" as="geometry"/>
                </mxCell>
                <mxCell id="229" value="FK" style="shape=partialRectangle;html=1;whiteSpace=wrap;connectable=0;fillColor=none;top=0;left=0;bottom=0;right=0;overflow=hidden;strokeColor=#0F8B8D;fontColor=#143642;" parent="228" vertex="1">
                    <mxGeometry width="30" height="30" as="geometry"/>
                </mxCell>
                <mxCell id="230" value="OrderID" style="shape=partialRectangle;html=1;whiteSpace=wrap;connectable=0;fillColor=none;top=0;left=0;bottom=0;right=0;overflow=hidden;strokeColor=#0F8B8D;fontColor=#143642;" parent="228" vertex="1">
                    <mxGeometry x="30" width="102" height="30" as="geometry"/>
                </mxCell>
                <mxCell id="231" value="&lt;span&gt;INT(10)&lt;/span&gt;" style="shape=partialRectangle;html=1;whiteSpace=wrap;connectable=0;fillColor=none;top=0;left=0;bottom=0;right=0;overflow=hidden;strokeColor=#0F8B8D;fontColor=#143642;" parent="228" vertex="1">
                    <mxGeometry x="132" width="104" height="30" as="geometry"/>
                </mxCell>
                <mxCell id="148" style="shape=partialRectangle;html=1;whiteSpace=wrap;collapsible=0;dropTarget=0;pointerEvents=0;fillColor=none;top=0;left=0;bottom=0;right=0;points=[[0,0.5],[1,0.5]];portConstraint=eastwest;strokeColor=#0F8B8D;fontColor=#143642;" parent="138" vertex="1">
                    <mxGeometry y="90" width="235.6470588235295" height="29" as="geometry"/>
                </mxCell>
                <mxCell id="149" style="shape=partialRectangle;html=1;whiteSpace=wrap;connectable=0;fillColor=none;top=0;left=0;bottom=0;right=0;overflow=hidden;strokeColor=#0F8B8D;fontColor=#143642;" parent="148" vertex="1">
                    <mxGeometry width="30" height="29" as="geometry"/>
                </mxCell>
                <mxCell id="150" value="&lt;div style=&quot;text-align: left&quot;&gt;&lt;span&gt;Name&lt;/span&gt;&lt;/div&gt;" style="shape=partialRectangle;html=1;whiteSpace=wrap;connectable=0;fillColor=none;top=0;left=0;bottom=0;right=0;overflow=hidden;strokeColor=#0F8B8D;fontColor=#143642;" parent="148" vertex="1">
                    <mxGeometry x="30" width="102" height="29" as="geometry"/>
                </mxCell>
                <mxCell id="151" value="VARCHAR(20)" style="shape=partialRectangle;html=1;whiteSpace=wrap;connectable=0;fillColor=none;top=0;left=0;bottom=0;right=0;overflow=hidden;strokeColor=#0F8B8D;fontColor=#143642;" parent="148" vertex="1">
                    <mxGeometry x="132" width="104" height="29" as="geometry"/>
                </mxCell>
                <mxCell id="152" style="shape=partialRectangle;html=1;whiteSpace=wrap;collapsible=0;dropTarget=0;pointerEvents=0;fillColor=none;top=0;left=0;bottom=0;right=0;points=[[0,0.5],[1,0.5]];portConstraint=eastwest;strokeColor=#0F8B8D;fontColor=#143642;" parent="138" vertex="1">
                    <mxGeometry y="119" width="235.6470588235295" height="29" as="geometry"/>
                </mxCell>
                <mxCell id="153" style="shape=partialRectangle;html=1;whiteSpace=wrap;connectable=0;fillColor=none;top=0;left=0;bottom=0;right=0;overflow=hidden;strokeColor=#0F8B8D;fontColor=#143642;" parent="152" vertex="1">
                    <mxGeometry width="30" height="29" as="geometry"/>
                </mxCell>
                <mxCell id="154" value="Info" style="shape=partialRectangle;html=1;whiteSpace=wrap;connectable=0;fillColor=none;top=0;left=0;bottom=0;right=0;overflow=hidden;strokeColor=#0F8B8D;fontColor=#143642;" parent="152" vertex="1">
                    <mxGeometry x="30" width="102" height="29" as="geometry"/>
                </mxCell>
                <mxCell id="155" value="TEXT" style="shape=partialRectangle;html=1;whiteSpace=wrap;connectable=0;fillColor=none;top=0;left=0;bottom=0;right=0;overflow=hidden;strokeColor=#0F8B8D;fontColor=#143642;" parent="152" vertex="1">
                    <mxGeometry x="132" width="104" height="29" as="geometry"/>
                </mxCell>
                <mxCell id="ivW9iHV96__MKiOfjKR5-272" value="CATEGORY" style="shape=table;html=1;whiteSpace=wrap;startSize=30;container=1;collapsible=0;childLayout=tableLayout;fontStyle=1;align=center;fillColor=#FAE5C7;strokeColor=#0F8B8D;fontColor=#143642;" parent="1" vertex="1">
                    <mxGeometry x="92" y="78" width="232" height="87" as="geometry"/>
                </mxCell>
                <mxCell id="ivW9iHV96__MKiOfjKR5-273" value="" style="shape=partialRectangle;html=1;whiteSpace=wrap;collapsible=0;dropTarget=0;pointerEvents=0;fillColor=none;top=0;left=0;bottom=0;right=0;points=[[0,0.5],[1,0.5]];portConstraint=eastwest;strokeColor=#0F8B8D;fontColor=#143642;" parent="ivW9iHV96__MKiOfjKR5-272" vertex="1">
                    <mxGeometry y="30" width="232" height="27" as="geometry"/>
                </mxCell>
                <mxCell id="ivW9iHV96__MKiOfjKR5-274" value="PK" style="shape=partialRectangle;html=1;whiteSpace=wrap;connectable=0;fillColor=none;top=0;left=0;bottom=0;right=0;overflow=hidden;strokeColor=#0F8B8D;fontColor=#143642;" parent="ivW9iHV96__MKiOfjKR5-273" vertex="1">
                    <mxGeometry width="31" height="27" as="geometry"/>
                </mxCell>
                <mxCell id="ivW9iHV96__MKiOfjKR5-275" value="ID" style="shape=partialRectangle;html=1;whiteSpace=wrap;connectable=0;fillColor=none;top=0;left=0;bottom=0;right=0;overflow=hidden;strokeColor=#0F8B8D;fontColor=#143642;" parent="ivW9iHV96__MKiOfjKR5-273" vertex="1">
                    <mxGeometry x="31" width="113" height="27" as="geometry"/>
                </mxCell>
                <mxCell id="ivW9iHV96__MKiOfjKR5-276" value="INT(10)" style="shape=partialRectangle;html=1;whiteSpace=wrap;connectable=0;fillColor=none;top=0;left=0;bottom=0;right=0;overflow=hidden;strokeColor=#0F8B8D;fontColor=#143642;" parent="ivW9iHV96__MKiOfjKR5-273" vertex="1">
                    <mxGeometry x="144" width="88" height="27" as="geometry"/>
                </mxCell>
                <mxCell id="ivW9iHV96__MKiOfjKR5-281" value="" style="shape=partialRectangle;html=1;whiteSpace=wrap;collapsible=0;dropTarget=0;pointerEvents=0;fillColor=none;top=0;left=0;bottom=0;right=0;points=[[0,0.5],[1,0.5]];portConstraint=eastwest;strokeColor=#0F8B8D;fontColor=#143642;" parent="ivW9iHV96__MKiOfjKR5-272" vertex="1">
                    <mxGeometry y="57" width="232" height="30" as="geometry"/>
                </mxCell>
                <mxCell id="ivW9iHV96__MKiOfjKR5-282" value="" style="shape=partialRectangle;html=1;whiteSpace=wrap;connectable=0;fillColor=none;top=0;left=0;bottom=0;right=0;overflow=hidden;strokeColor=#0F8B8D;fontColor=#143642;" parent="ivW9iHV96__MKiOfjKR5-281" vertex="1">
                    <mxGeometry width="31" height="30" as="geometry"/>
                </mxCell>
                <mxCell id="ivW9iHV96__MKiOfjKR5-283" value="Name" style="shape=partialRectangle;html=1;whiteSpace=wrap;connectable=0;fillColor=none;top=0;left=0;bottom=0;right=0;overflow=hidden;strokeColor=#0F8B8D;fontColor=#143642;" parent="ivW9iHV96__MKiOfjKR5-281" vertex="1">
                    <mxGeometry x="31" width="113" height="30" as="geometry"/>
                </mxCell>
                <mxCell id="ivW9iHV96__MKiOfjKR5-284" value="&lt;span&gt;VARCHAR(100)&lt;/span&gt;" style="shape=partialRectangle;html=1;whiteSpace=wrap;connectable=0;fillColor=none;top=0;left=0;bottom=0;right=0;overflow=hidden;strokeColor=#0F8B8D;fontColor=#143642;" parent="ivW9iHV96__MKiOfjKR5-281" vertex="1">
                    <mxGeometry x="144" width="88" height="30" as="geometry"/>
                </mxCell>
                <mxCell id="ivW9iHV96__MKiOfjKR5-317" value="newsLetter" style="shape=table;html=1;whiteSpace=wrap;startSize=30;container=1;collapsible=0;childLayout=tableLayout;fontStyle=1;align=center;fillColor=#FAE5C7;strokeColor=#0F8B8D;fontColor=#143642;" parent="1" vertex="1">
                    <mxGeometry x="402" y="37" width="223.75000000000006" height="177" as="geometry"/>
                </mxCell>
                <mxCell id="ivW9iHV96__MKiOfjKR5-318" value="" style="shape=partialRectangle;html=1;whiteSpace=wrap;collapsible=0;dropTarget=0;pointerEvents=0;fillColor=none;top=0;left=0;bottom=0;right=0;points=[[0,0.5],[1,0.5]];portConstraint=eastwest;strokeColor=#0F8B8D;fontColor=#143642;" parent="ivW9iHV96__MKiOfjKR5-317" vertex="1">
                    <mxGeometry y="30" width="223.75000000000006" height="30" as="geometry"/>
                </mxCell>
                <mxCell id="ivW9iHV96__MKiOfjKR5-319" value="PK" style="shape=partialRectangle;html=1;whiteSpace=wrap;connectable=0;fillColor=none;top=0;left=0;bottom=0;right=0;overflow=hidden;strokeColor=#0F8B8D;fontColor=#143642;" parent="ivW9iHV96__MKiOfjKR5-318" vertex="1">
                    <mxGeometry width="30" height="30" as="geometry"/>
                </mxCell>
                <mxCell id="ivW9iHV96__MKiOfjKR5-320" value="ID" style="shape=partialRectangle;html=1;whiteSpace=wrap;connectable=0;fillColor=none;top=0;left=0;bottom=0;right=0;overflow=hidden;strokeColor=#0F8B8D;fontColor=#143642;" parent="ivW9iHV96__MKiOfjKR5-318" vertex="1">
                    <mxGeometry x="30" width="102" height="30" as="geometry"/>
                </mxCell>
                <mxCell id="ivW9iHV96__MKiOfjKR5-321" value="INT(20)" style="shape=partialRectangle;html=1;whiteSpace=wrap;connectable=0;fillColor=none;top=0;left=0;bottom=0;right=0;overflow=hidden;strokeColor=#0F8B8D;fontColor=#143642;" parent="ivW9iHV96__MKiOfjKR5-318" vertex="1">
                    <mxGeometry x="132" width="92" height="30" as="geometry"/>
                </mxCell>
                <mxCell id="288" style="shape=partialRectangle;html=1;whiteSpace=wrap;collapsible=0;dropTarget=0;pointerEvents=0;fillColor=none;top=0;left=0;bottom=0;right=0;points=[[0,0.5],[1,0.5]];portConstraint=eastwest;strokeColor=#0F8B8D;fontColor=#143642;" vertex="1" parent="ivW9iHV96__MKiOfjKR5-317">
                    <mxGeometry y="60" width="223.75000000000006" height="29" as="geometry"/>
                </mxCell>
                <mxCell id="289" value="FK" style="shape=partialRectangle;html=1;whiteSpace=wrap;connectable=0;fillColor=none;top=0;left=0;bottom=0;right=0;overflow=hidden;strokeColor=#0F8B8D;fontColor=#143642;" vertex="1" parent="288">
                    <mxGeometry width="30" height="29" as="geometry"/>
                </mxCell>
                <mxCell id="290" value="CustomerID" style="shape=partialRectangle;html=1;whiteSpace=wrap;connectable=0;fillColor=none;top=0;left=0;bottom=0;right=0;overflow=hidden;strokeColor=#0F8B8D;fontColor=#143642;" vertex="1" parent="288">
                    <mxGeometry x="30" width="102" height="29" as="geometry"/>
                </mxCell>
                <mxCell id="291" value="&lt;span&gt;INT(20)&lt;/span&gt;" style="shape=partialRectangle;html=1;whiteSpace=wrap;connectable=0;fillColor=none;top=0;left=0;bottom=0;right=0;overflow=hidden;strokeColor=#0F8B8D;fontColor=#143642;" vertex="1" parent="288">
                    <mxGeometry x="132" width="92" height="29" as="geometry"/>
                </mxCell>
                <mxCell id="296" style="shape=partialRectangle;html=1;whiteSpace=wrap;collapsible=0;dropTarget=0;pointerEvents=0;fillColor=none;top=0;left=0;bottom=0;right=0;points=[[0,0.5],[1,0.5]];portConstraint=eastwest;strokeColor=#0F8B8D;fontColor=#143642;" vertex="1" parent="ivW9iHV96__MKiOfjKR5-317">
                    <mxGeometry y="89" width="223.75000000000006" height="29" as="geometry"/>
                </mxCell>
                <mxCell id="297" style="shape=partialRectangle;html=1;whiteSpace=wrap;connectable=0;fillColor=none;top=0;left=0;bottom=0;right=0;overflow=hidden;strokeColor=#0F8B8D;fontColor=#143642;" vertex="1" parent="296">
                    <mxGeometry width="30" height="29" as="geometry"/>
                </mxCell>
                <mxCell id="298" value="fName" style="shape=partialRectangle;html=1;whiteSpace=wrap;connectable=0;fillColor=none;top=0;left=0;bottom=0;right=0;overflow=hidden;strokeColor=#0F8B8D;fontColor=#143642;" vertex="1" parent="296">
                    <mxGeometry x="30" width="102" height="29" as="geometry"/>
                </mxCell>
                <mxCell id="299" value="VARCHAR(20)" style="shape=partialRectangle;html=1;whiteSpace=wrap;connectable=0;fillColor=none;top=0;left=0;bottom=0;right=0;overflow=hidden;strokeColor=#0F8B8D;fontColor=#143642;" vertex="1" parent="296">
                    <mxGeometry x="132" width="92" height="29" as="geometry"/>
                </mxCell>
                <mxCell id="ivW9iHV96__MKiOfjKR5-322" value="" style="shape=partialRectangle;html=1;whiteSpace=wrap;collapsible=0;dropTarget=0;pointerEvents=0;fillColor=none;top=0;left=0;bottom=0;right=0;points=[[0,0.5],[1,0.5]];portConstraint=eastwest;strokeColor=#0F8B8D;fontColor=#143642;" parent="ivW9iHV96__MKiOfjKR5-317" vertex="1">
                    <mxGeometry y="118" width="223.75000000000006" height="29" as="geometry"/>
                </mxCell>
                <mxCell id="ivW9iHV96__MKiOfjKR5-323" value="" style="shape=partialRectangle;html=1;whiteSpace=wrap;connectable=0;fillColor=none;top=0;left=0;bottom=0;right=0;overflow=hidden;strokeColor=#0F8B8D;fontColor=#143642;" parent="ivW9iHV96__MKiOfjKR5-322" vertex="1">
                    <mxGeometry width="30" height="29" as="geometry"/>
                </mxCell>
                <mxCell id="ivW9iHV96__MKiOfjKR5-324" value="lName" style="shape=partialRectangle;html=1;whiteSpace=wrap;connectable=0;fillColor=none;top=0;left=0;bottom=0;right=0;overflow=hidden;strokeColor=#0F8B8D;fontColor=#143642;" parent="ivW9iHV96__MKiOfjKR5-322" vertex="1">
                    <mxGeometry x="30" width="102" height="29" as="geometry"/>
                </mxCell>
                <mxCell id="ivW9iHV96__MKiOfjKR5-325" value="&lt;span&gt;VARCHAR(20)&lt;/span&gt;" style="shape=partialRectangle;html=1;whiteSpace=wrap;connectable=0;fillColor=none;top=0;left=0;bottom=0;right=0;overflow=hidden;strokeColor=#0F8B8D;fontColor=#143642;" parent="ivW9iHV96__MKiOfjKR5-322" vertex="1">
                    <mxGeometry x="132" width="92" height="29" as="geometry"/>
                </mxCell>
                <mxCell id="ivW9iHV96__MKiOfjKR5-326" value="" style="shape=partialRectangle;html=1;whiteSpace=wrap;collapsible=0;dropTarget=0;pointerEvents=0;fillColor=none;top=0;left=0;bottom=0;right=0;points=[[0,0.5],[1,0.5]];portConstraint=eastwest;strokeColor=#0F8B8D;fontColor=#143642;" parent="ivW9iHV96__MKiOfjKR5-317" vertex="1">
                    <mxGeometry y="147" width="223.75000000000006" height="30" as="geometry"/>
                </mxCell>
                <mxCell id="ivW9iHV96__MKiOfjKR5-327" value="" style="shape=partialRectangle;html=1;whiteSpace=wrap;connectable=0;fillColor=none;top=0;left=0;bottom=0;right=0;overflow=hidden;strokeColor=#0F8B8D;fontColor=#143642;" parent="ivW9iHV96__MKiOfjKR5-326" vertex="1">
                    <mxGeometry width="30" height="30" as="geometry"/>
                </mxCell>
                <mxCell id="ivW9iHV96__MKiOfjKR5-328" value="&lt;span style=&quot;text-align: left&quot;&gt;Email&lt;/span&gt;" style="shape=partialRectangle;html=1;whiteSpace=wrap;connectable=0;fillColor=none;top=0;left=0;bottom=0;right=0;overflow=hidden;strokeColor=#0F8B8D;fontColor=#143642;" parent="ivW9iHV96__MKiOfjKR5-326" vertex="1">
                    <mxGeometry x="30" width="102" height="30" as="geometry"/>
                </mxCell>
                <mxCell id="ivW9iHV96__MKiOfjKR5-329" value="VARCHAR(50)" style="shape=partialRectangle;html=1;whiteSpace=wrap;connectable=0;fillColor=none;top=0;left=0;bottom=0;right=0;overflow=hidden;strokeColor=#0F8B8D;fontColor=#143642;" parent="ivW9iHV96__MKiOfjKR5-326" vertex="1">
                    <mxGeometry x="132" width="92" height="30" as="geometry"/>
                </mxCell>
                <mxCell id="ivW9iHV96__MKiOfjKR5-372" value="orderDetails" style="shape=table;html=1;whiteSpace=wrap;startSize=30;container=1;collapsible=0;childLayout=tableLayout;fontStyle=1;align=center;fillColor=#FAE5C7;strokeColor=#0F8B8D;fontColor=#143642;" parent="1" vertex="1">
                    <mxGeometry x="351" y="418" width="195.70588235294144" height="139" as="geometry"/>
                </mxCell>
                <mxCell id="ivW9iHV96__MKiOfjKR5-373" value="" style="shape=partialRectangle;html=1;whiteSpace=wrap;collapsible=0;dropTarget=0;pointerEvents=0;fillColor=none;top=0;left=0;bottom=0;right=0;points=[[0,0.5],[1,0.5]];portConstraint=eastwest;strokeColor=#0F8B8D;fontColor=#143642;" parent="ivW9iHV96__MKiOfjKR5-372" vertex="1">
                    <mxGeometry y="30" width="195.70588235294144" height="30" as="geometry"/>
                </mxCell>
                <mxCell id="ivW9iHV96__MKiOfjKR5-374" value="CPK1" style="shape=partialRectangle;html=1;whiteSpace=wrap;connectable=0;fillColor=none;top=0;left=0;bottom=0;right=0;overflow=hidden;strokeColor=#0F8B8D;fontColor=#143642;" parent="ivW9iHV96__MKiOfjKR5-373" vertex="1">
                    <mxGeometry width="38" height="30" as="geometry"/>
                </mxCell>
                <mxCell id="ivW9iHV96__MKiOfjKR5-375" value="OrderID" style="shape=partialRectangle;html=1;whiteSpace=wrap;connectable=0;fillColor=none;top=0;left=0;bottom=0;right=0;overflow=hidden;strokeColor=#0F8B8D;fontColor=#143642;" parent="ivW9iHV96__MKiOfjKR5-373" vertex="1">
                    <mxGeometry x="38" width="94" height="30" as="geometry"/>
                </mxCell>
                <mxCell id="ivW9iHV96__MKiOfjKR5-376" value="INT(10)" style="shape=partialRectangle;html=1;whiteSpace=wrap;connectable=0;fillColor=none;top=0;left=0;bottom=0;right=0;overflow=hidden;strokeColor=#0F8B8D;fontColor=#143642;" parent="ivW9iHV96__MKiOfjKR5-373" vertex="1">
                    <mxGeometry x="132" width="64" height="30" as="geometry"/>
                </mxCell>
                <mxCell id="ivW9iHV96__MKiOfjKR5-377" style="shape=partialRectangle;html=1;whiteSpace=wrap;collapsible=0;dropTarget=0;pointerEvents=0;fillColor=none;top=0;left=0;bottom=0;right=0;points=[[0,0.5],[1,0.5]];portConstraint=eastwest;strokeColor=#0F8B8D;fontColor=#143642;" parent="ivW9iHV96__MKiOfjKR5-372" vertex="1">
                    <mxGeometry y="60" width="195.70588235294144" height="30" as="geometry"/>
                </mxCell>
                <mxCell id="ivW9iHV96__MKiOfjKR5-378" value="CPK2" style="shape=partialRectangle;html=1;whiteSpace=wrap;connectable=0;fillColor=none;top=0;left=0;bottom=0;right=0;overflow=hidden;strokeColor=#0F8B8D;fontColor=#143642;" parent="ivW9iHV96__MKiOfjKR5-377" vertex="1">
                    <mxGeometry width="38" height="30" as="geometry"/>
                </mxCell>
                <mxCell id="ivW9iHV96__MKiOfjKR5-379" value="ProductID" style="shape=partialRectangle;html=1;whiteSpace=wrap;connectable=0;fillColor=none;top=0;left=0;bottom=0;right=0;overflow=hidden;strokeColor=#0F8B8D;fontColor=#143642;" parent="ivW9iHV96__MKiOfjKR5-377" vertex="1">
                    <mxGeometry x="38" width="94" height="30" as="geometry"/>
                </mxCell>
                <mxCell id="ivW9iHV96__MKiOfjKR5-380" value="&lt;span&gt;INT(10)&lt;/span&gt;" style="shape=partialRectangle;html=1;whiteSpace=wrap;connectable=0;fillColor=none;top=0;left=0;bottom=0;right=0;overflow=hidden;strokeColor=#0F8B8D;fontColor=#143642;" parent="ivW9iHV96__MKiOfjKR5-377" vertex="1">
                    <mxGeometry x="132" width="64" height="30" as="geometry"/>
                </mxCell>
                <mxCell id="ivW9iHV96__MKiOfjKR5-381" style="shape=partialRectangle;html=1;whiteSpace=wrap;collapsible=0;dropTarget=0;pointerEvents=0;fillColor=none;top=0;left=0;bottom=0;right=0;points=[[0,0.5],[1,0.5]];portConstraint=eastwest;strokeColor=#0F8B8D;fontColor=#143642;" parent="ivW9iHV96__MKiOfjKR5-372" vertex="1">
                    <mxGeometry y="90" width="195.70588235294144" height="20" as="geometry"/>
                </mxCell>
                <mxCell id="ivW9iHV96__MKiOfjKR5-382" style="shape=partialRectangle;html=1;whiteSpace=wrap;connectable=0;fillColor=none;top=0;left=0;bottom=0;right=0;overflow=hidden;strokeColor=#0F8B8D;fontColor=#143642;" parent="ivW9iHV96__MKiOfjKR5-381" vertex="1">
                    <mxGeometry width="38" height="20" as="geometry"/>
                </mxCell>
                <mxCell id="ivW9iHV96__MKiOfjKR5-383" value="&lt;span style=&quot;text-align: left&quot;&gt;Quantity&lt;/span&gt;" style="shape=partialRectangle;html=1;whiteSpace=wrap;connectable=0;fillColor=none;top=0;left=0;bottom=0;right=0;overflow=hidden;strokeColor=#0F8B8D;fontColor=#143642;" parent="ivW9iHV96__MKiOfjKR5-381" vertex="1">
                    <mxGeometry x="38" width="94" height="20" as="geometry"/>
                </mxCell>
                <mxCell id="ivW9iHV96__MKiOfjKR5-384" value="INT(4)" style="shape=partialRectangle;html=1;whiteSpace=wrap;connectable=0;fillColor=none;top=0;left=0;bottom=0;right=0;overflow=hidden;strokeColor=#0F8B8D;fontColor=#143642;" parent="ivW9iHV96__MKiOfjKR5-381" vertex="1">
                    <mxGeometry x="132" width="64" height="20" as="geometry"/>
                </mxCell>
                <mxCell id="7CMeh297SP7o4FMxIKgV-281" style="shape=partialRectangle;html=1;whiteSpace=wrap;collapsible=0;dropTarget=0;pointerEvents=0;fillColor=none;top=0;left=0;bottom=0;right=0;points=[[0,0.5],[1,0.5]];portConstraint=eastwest;strokeColor=#0F8B8D;fontColor=#143642;" parent="ivW9iHV96__MKiOfjKR5-372" vertex="1">
                    <mxGeometry y="110" width="195.70588235294144" height="29" as="geometry"/>
                </mxCell>
                <mxCell id="7CMeh297SP7o4FMxIKgV-282" style="shape=partialRectangle;html=1;whiteSpace=wrap;connectable=0;fillColor=none;top=0;left=0;bottom=0;right=0;overflow=hidden;strokeColor=#0F8B8D;fontColor=#143642;" parent="7CMeh297SP7o4FMxIKgV-281" vertex="1">
                    <mxGeometry width="38" height="29" as="geometry"/>
                </mxCell>
                <mxCell id="7CMeh297SP7o4FMxIKgV-283" value="Sum" style="shape=partialRectangle;html=1;whiteSpace=wrap;connectable=0;fillColor=none;top=0;left=0;bottom=0;right=0;overflow=hidden;strokeColor=#0F8B8D;fontColor=#143642;" parent="7CMeh297SP7o4FMxIKgV-281" vertex="1">
                    <mxGeometry x="38" width="94" height="29" as="geometry"/>
                </mxCell>
                <mxCell id="7CMeh297SP7o4FMxIKgV-284" value="FLOAT(12)" style="shape=partialRectangle;html=1;whiteSpace=wrap;connectable=0;fillColor=none;top=0;left=0;bottom=0;right=0;overflow=hidden;strokeColor=#0F8B8D;fontColor=#143642;" parent="7CMeh297SP7o4FMxIKgV-281" vertex="1">
                    <mxGeometry x="132" width="64" height="29" as="geometry"/>
                </mxCell>
                <mxCell id="S2CIsZBpXwnliSbpIKQO-269" value="categoryDetails" style="shape=table;html=1;whiteSpace=wrap;startSize=30;container=1;collapsible=0;childLayout=tableLayout;fontStyle=1;align=center;fillColor=#FAE5C7;strokeColor=#0F8B8D;fontColor=#143642;" parent="1" vertex="1">
                    <mxGeometry x="57" y="242" width="181.00000000000006" height="89" as="geometry"/>
                </mxCell>
                <mxCell id="S2CIsZBpXwnliSbpIKQO-274" value="" style="shape=partialRectangle;html=1;whiteSpace=wrap;collapsible=0;dropTarget=0;pointerEvents=0;fillColor=none;top=0;left=0;bottom=0;right=0;points=[[0,0.5],[1,0.5]];portConstraint=eastwest;strokeColor=#0F8B8D;fontColor=#143642;" parent="S2CIsZBpXwnliSbpIKQO-269" vertex="1">
                    <mxGeometry y="30" width="181.00000000000006" height="29" as="geometry"/>
                </mxCell>
                <mxCell id="S2CIsZBpXwnliSbpIKQO-275" value="CPK1" style="shape=partialRectangle;html=1;whiteSpace=wrap;connectable=0;fillColor=none;top=0;left=0;bottom=0;right=0;overflow=hidden;strokeColor=#0F8B8D;fontColor=#143642;" parent="S2CIsZBpXwnliSbpIKQO-274" vertex="1">
                    <mxGeometry width="41" height="29" as="geometry"/>
                </mxCell>
                <mxCell id="S2CIsZBpXwnliSbpIKQO-276" value="ProductID" style="shape=partialRectangle;html=1;whiteSpace=wrap;connectable=0;fillColor=none;top=0;left=0;bottom=0;right=0;overflow=hidden;strokeColor=#0F8B8D;fontColor=#143642;" parent="S2CIsZBpXwnliSbpIKQO-274" vertex="1">
                    <mxGeometry x="41" width="91" height="29" as="geometry"/>
                </mxCell>
                <mxCell id="S2CIsZBpXwnliSbpIKQO-277" value="INT(10)" style="shape=partialRectangle;html=1;whiteSpace=wrap;connectable=0;fillColor=none;top=0;left=0;bottom=0;right=0;overflow=hidden;strokeColor=#0F8B8D;fontColor=#143642;" parent="S2CIsZBpXwnliSbpIKQO-274" vertex="1">
                    <mxGeometry x="132" width="49" height="29" as="geometry"/>
                </mxCell>
                <mxCell id="S2CIsZBpXwnliSbpIKQO-278" value="" style="shape=partialRectangle;html=1;whiteSpace=wrap;collapsible=0;dropTarget=0;pointerEvents=0;fillColor=none;top=0;left=0;bottom=0;right=0;points=[[0,0.5],[1,0.5]];portConstraint=eastwest;strokeColor=#0F8B8D;fontColor=#143642;" parent="S2CIsZBpXwnliSbpIKQO-269" vertex="1">
                    <mxGeometry y="59" width="181.00000000000006" height="30" as="geometry"/>
                </mxCell>
                <mxCell id="S2CIsZBpXwnliSbpIKQO-279" value="CPK2" style="shape=partialRectangle;html=1;whiteSpace=wrap;connectable=0;fillColor=none;top=0;left=0;bottom=0;right=0;overflow=hidden;strokeColor=#0F8B8D;fontColor=#143642;" parent="S2CIsZBpXwnliSbpIKQO-278" vertex="1">
                    <mxGeometry width="41" height="30" as="geometry"/>
                </mxCell>
                <mxCell id="S2CIsZBpXwnliSbpIKQO-280" value="&lt;div style=&quot;text-align: left&quot;&gt;&lt;span&gt;CategoryID&lt;/span&gt;&lt;/div&gt;" style="shape=partialRectangle;html=1;whiteSpace=wrap;connectable=0;fillColor=none;top=0;left=0;bottom=0;right=0;overflow=hidden;strokeColor=#0F8B8D;fontColor=#143642;" parent="S2CIsZBpXwnliSbpIKQO-278" vertex="1">
                    <mxGeometry x="41" width="91" height="30" as="geometry"/>
                </mxCell>
                <mxCell id="S2CIsZBpXwnliSbpIKQO-281" value="&lt;span&gt;INT(10)&lt;/span&gt;" style="shape=partialRectangle;html=1;whiteSpace=wrap;connectable=0;fillColor=none;top=0;left=0;bottom=0;right=0;overflow=hidden;strokeColor=#0F8B8D;fontColor=#143642;" parent="S2CIsZBpXwnliSbpIKQO-278" vertex="1">
                    <mxGeometry x="132" width="49" height="30" as="geometry"/>
                </mxCell>
                <mxCell id="f5SMzgVA7bW5Jj8AFidl-281" value="" style="endArrow=none;html=1;strokeColor=#CC0000;entryX=-0.023;entryY=0.055;entryDx=0;entryDy=0;endFill=0;exitX=1.005;exitY=0.063;exitDx=0;exitDy=0;exitPerimeter=0;entryPerimeter=0;" parent="1" source="ivW9iHV96__MKiOfjKR5-372" target="120" edge="1">
                    <mxGeometry relative="1" as="geometry">
                        <mxPoint x="514" y="496" as="sourcePoint"/>
                        <mxPoint x="674" y="496" as="targetPoint"/>
                    </mxGeometry>
                </mxCell>
                <mxCell id="f5SMzgVA7bW5Jj8AFidl-283" value="1..*" style="edgeLabel;resizable=0;html=1;align=left;verticalAlign=bottom;" parent="f5SMzgVA7bW5Jj8AFidl-281" connectable="0" vertex="1">
                    <mxGeometry x="-1" relative="1" as="geometry"/>
                </mxCell>
                <mxCell id="f5SMzgVA7bW5Jj8AFidl-284" value="1&lt;br&gt;" style="edgeLabel;resizable=0;html=1;align=right;verticalAlign=bottom;" parent="f5SMzgVA7bW5Jj8AFidl-281" connectable="0" vertex="1">
                    <mxGeometry x="1" relative="1" as="geometry"/>
                </mxCell>
                <mxCell id="f5SMzgVA7bW5Jj8AFidl-291" value="" style="endArrow=none;html=1;strokeColor=#CC0000;endFill=0;" parent="1" edge="1">
                    <mxGeometry relative="1" as="geometry">
                        <mxPoint x="515" y="697" as="sourcePoint"/>
                        <mxPoint x="626" y="692" as="targetPoint"/>
                    </mxGeometry>
                </mxCell>
                <mxCell id="f5SMzgVA7bW5Jj8AFidl-293" value="1" style="edgeLabel;resizable=0;html=1;align=left;verticalAlign=bottom;" parent="f5SMzgVA7bW5Jj8AFidl-291" connectable="0" vertex="1">
                    <mxGeometry x="-1" relative="1" as="geometry"/>
                </mxCell>
                <mxCell id="f5SMzgVA7bW5Jj8AFidl-294" value="0..*" style="edgeLabel;resizable=0;html=1;align=right;verticalAlign=bottom;" parent="f5SMzgVA7bW5Jj8AFidl-291" connectable="0" vertex="1">
                    <mxGeometry x="1" relative="1" as="geometry"/>
                </mxCell>
                <mxCell id="f5SMzgVA7bW5Jj8AFidl-302" value="" style="endArrow=none;html=1;strokeColor=#CC0000;endFill=0;entryX=0.002;entryY=0.063;entryDx=0;entryDy=0;exitX=1.005;exitY=0.092;exitDx=0;exitDy=0;exitPerimeter=0;entryPerimeter=0;" parent="1" source="YACHoL5docVy_mTdtGhY-1" target="ivW9iHV96__MKiOfjKR5-372" edge="1">
                    <mxGeometry relative="1" as="geometry">
                        <mxPoint x="255" y="437" as="sourcePoint"/>
                        <mxPoint x="323" y="437" as="targetPoint"/>
                        <Array as="points">
                            <mxPoint x="292" y="437"/>
                        </Array>
                    </mxGeometry>
                </mxCell>
                <mxCell id="f5SMzgVA7bW5Jj8AFidl-304" value="1" style="edgeLabel;resizable=0;html=1;align=left;verticalAlign=bottom;" parent="f5SMzgVA7bW5Jj8AFidl-302" connectable="0" vertex="1">
                    <mxGeometry x="-1" relative="1" as="geometry"/>
                </mxCell>
                <mxCell id="f5SMzgVA7bW5Jj8AFidl-305" value="1..*" style="edgeLabel;resizable=0;html=1;align=right;verticalAlign=bottom;" parent="f5SMzgVA7bW5Jj8AFidl-302" connectable="0" vertex="1">
                    <mxGeometry x="1" relative="1" as="geometry">
                        <mxPoint x="-15.530000000000001" y="-2" as="offset"/>
                    </mxGeometry>
                </mxCell>
                <mxCell id="f5SMzgVA7bW5Jj8AFidl-325" value="" style="endArrow=none;html=1;strokeColor=#CC0000;entryX=0;entryY=0.074;entryDx=0;entryDy=0;entryPerimeter=0;endFill=0;" parent="1" target="72" edge="1">
                    <mxGeometry relative="1" as="geometry">
                        <mxPoint x="633" y="54" as="sourcePoint"/>
                        <mxPoint x="708" y="54" as="targetPoint"/>
                    </mxGeometry>
                </mxCell>
                <mxCell id="f5SMzgVA7bW5Jj8AFidl-327" value="0..1" style="edgeLabel;resizable=0;html=1;align=left;verticalAlign=bottom;" parent="f5SMzgVA7bW5Jj8AFidl-325" connectable="0" vertex="1">
                    <mxGeometry x="-1" relative="1" as="geometry"/>
                </mxCell>
                <mxCell id="f5SMzgVA7bW5Jj8AFidl-328" value="0..1" style="edgeLabel;resizable=0;html=1;align=right;verticalAlign=bottom;" parent="f5SMzgVA7bW5Jj8AFidl-325" connectable="0" vertex="1">
                    <mxGeometry x="1" relative="1" as="geometry">
                        <mxPoint x="-12.18" y="-2.13" as="offset"/>
                    </mxGeometry>
                </mxCell>
                <mxCell id="f5SMzgVA7bW5Jj8AFidl-329" value="" style="endArrow=none;html=1;strokeColor=#CC0000;endFill=0;" parent="1" edge="1">
                    <mxGeometry relative="1" as="geometry">
                        <mxPoint x="751" y="466" as="sourcePoint"/>
                        <mxPoint x="751" y="548" as="targetPoint"/>
                        <Array as="points">
                            <mxPoint x="751" y="570"/>
                        </Array>
                    </mxGeometry>
                </mxCell>
                <mxCell id="f5SMzgVA7bW5Jj8AFidl-331" value="1" style="edgeLabel;resizable=0;html=1;align=left;verticalAlign=bottom;" parent="f5SMzgVA7bW5Jj8AFidl-329" connectable="0" vertex="1">
                    <mxGeometry x="-1" relative="1" as="geometry">
                        <mxPoint x="5" y="27" as="offset"/>
                    </mxGeometry>
                </mxCell>
                <mxCell id="f5SMzgVA7bW5Jj8AFidl-332" value="0..*" style="edgeLabel;resizable=0;html=1;align=right;verticalAlign=bottom;" parent="f5SMzgVA7bW5Jj8AFidl-329" connectable="0" vertex="1">
                    <mxGeometry x="1" relative="1" as="geometry">
                        <mxPoint x="-13" y="-8.35" as="offset"/>
                    </mxGeometry>
                </mxCell>
                <mxCell id="f5SMzgVA7bW5Jj8AFidl-364" value="" style="endArrow=none;html=1;strokeColor=#CC0000;endFill=0;entryX=0.365;entryY=0.986;entryDx=0;entryDy=0;entryPerimeter=0;" parent="1" target="S2CIsZBpXwnliSbpIKQO-278" edge="1">
                    <mxGeometry relative="1" as="geometry">
                        <mxPoint x="123" y="430" as="sourcePoint"/>
                        <mxPoint x="120.99666666666685" y="358" as="targetPoint"/>
                    </mxGeometry>
                </mxCell>
                <mxCell id="f5SMzgVA7bW5Jj8AFidl-365" value="1" style="edgeLabel;resizable=0;html=1;align=left;verticalAlign=bottom;" parent="f5SMzgVA7bW5Jj8AFidl-364" connectable="0" vertex="1">
                    <mxGeometry x="-1" relative="1" as="geometry">
                        <mxPoint x="18" as="offset"/>
                    </mxGeometry>
                </mxCell>
                <mxCell id="f5SMzgVA7bW5Jj8AFidl-366" value="1..*" style="edgeLabel;resizable=0;html=1;align=right;verticalAlign=bottom;" parent="f5SMzgVA7bW5Jj8AFidl-364" connectable="0" vertex="1">
                    <mxGeometry x="1" relative="1" as="geometry">
                        <mxPoint x="-9.91" y="19.97" as="offset"/>
                    </mxGeometry>
                </mxCell>
                <mxCell id="304" value="" style="endArrow=none;html=1;strokeColor=#CC0000;endFill=0;exitX=0.5;exitY=0;exitDx=0;exitDy=0;entryX=0.419;entryY=1.026;entryDx=0;entryDy=0;entryPerimeter=0;" edge="1" parent="1">
                    <mxGeometry relative="1" as="geometry">
                        <mxPoint x="142" y="240.22" as="sourcePoint"/>
                        <mxPoint x="151.56549999999993" y="172.00000000000009" as="targetPoint"/>
                    </mxGeometry>
                </mxCell>
                <mxCell id="305" value="1..*" style="edgeLabel;resizable=0;html=1;align=left;verticalAlign=bottom;" connectable="0" vertex="1" parent="304">
                    <mxGeometry x="-1" relative="1" as="geometry">
                        <mxPoint x="18" as="offset"/>
                    </mxGeometry>
                </mxCell>
                <mxCell id="306" value="1" style="edgeLabel;resizable=0;html=1;align=right;verticalAlign=bottom;" connectable="0" vertex="1" parent="304">
                    <mxGeometry x="1" relative="1" as="geometry">
                        <mxPoint x="-9.91" y="19.97" as="offset"/>
                    </mxGeometry>
                </mxCell>
            </root>
        </mxGraphModel>
    </diagram>
</mxfile>